# 3ds Max Wavefront OBJ Exporter v0.97b - (c)2007 guruware
# File Created: 28.11.2012 14:59:34

mtllib sugar1.mtl

#
# object Cone001
#

v  0.8186 -0.0103 0.0222
v  0.8175 -0.0673 0.0375
v  0.8174 -0.0694 0.0222
v  0.8176 -0.0615 0.0517
v  0.8178 -0.0521 0.0640
v  0.8180 -0.0398 0.0733
v  0.8183 -0.0256 0.0793
v  0.8186 -0.0103 0.0813
v  0.8189 0.0050 0.0793
v  0.8192 0.0192 0.0733
v  0.8195 0.0314 0.0640
v  0.8197 0.0408 0.0517
v  0.8198 0.0467 0.0375
v  0.8198 0.0487 0.0222
v  0.8198 0.0467 0.0069
v  0.8197 0.0408 -0.0073
v  0.8195 0.0314 -0.0195
v  0.8192 0.0192 -0.0289
v  0.8189 0.0050 -0.0348
v  0.8186 -0.0103 -0.0368
v  0.8183 -0.0256 -0.0348
v  0.8180 -0.0398 -0.0289
v  0.8178 -0.0521 -0.0195
v  0.8176 -0.0615 -0.0073
v  0.8175 -0.0673 0.0069
v  0.7083 -0.0663 0.0378
v  0.7083 -0.0683 0.0222
v  0.7084 -0.0603 0.0523
v  0.7086 -0.0507 0.0648
v  0.7089 -0.0382 0.0744
v  0.7092 -0.0237 0.0804
v  0.7095 -0.0081 0.0825
v  0.7098 0.0075 0.0804
v  0.7101 0.0220 0.0744
v  0.7104 0.0345 0.0648
v  0.7105 0.0440 0.0523
v  0.7107 0.0501 0.0378
v  0.7107 0.0521 0.0222
v  0.7107 0.0501 0.0066
v  0.7105 0.0440 -0.0079
v  0.7104 0.0345 -0.0204
v  0.7101 0.0220 -0.0300
v  0.7098 0.0075 -0.0360
v  0.7095 -0.0081 -0.0380
v  0.7092 -0.0237 -0.0360
v  0.7089 -0.0382 -0.0300
v  0.7086 -0.0507 -0.0204
v  0.7084 -0.0603 -0.0079
v  0.7083 -0.0663 0.0066
v  0.5992 -0.0653 0.0381
v  0.5992 -0.0673 0.0222
v  0.5993 -0.0591 0.0529
v  0.5995 -0.0494 0.0656
v  0.5998 -0.0367 0.0754
v  0.6001 -0.0218 0.0816
v  0.6004 -0.0059 0.0836
v  0.6007 0.0100 0.0816
v  0.6010 0.0248 0.0754
v  0.6013 0.0375 0.0656
v  0.6015 0.0473 0.0529
v  0.6016 0.0534 0.0381
v  0.6016 0.0555 0.0222
v  0.6016 0.0534 0.0063
v  0.6015 0.0473 -0.0085
v  0.6013 0.0375 -0.0212
v  0.6010 0.0248 -0.0310
v  0.6007 0.0100 -0.0372
v  0.6004 -0.0059 -0.0392
v  0.6001 -0.0218 -0.0372
v  0.5998 -0.0367 -0.0310
v  0.5995 -0.0494 -0.0212
v  0.5993 -0.0591 -0.0085
v  0.5992 -0.0653 0.0063
v  0.4901 -0.0642 0.0384
v  0.4900 -0.0663 0.0222
v  0.4902 -0.0580 0.0535
v  0.4904 -0.0480 0.0665
v  0.4907 -0.0350 0.0765
v  0.4909 -0.0199 0.0827
v  0.4913 -0.0037 0.0849
v  0.4916 0.0125 0.0827
v  0.4919 0.0276 0.0765
v  0.4922 0.0406 0.0665
v  0.4924 0.0505 0.0535
v  0.4925 0.0568 0.0384
v  0.4926 0.0589 0.0222
v  0.4925 0.0568 0.0060
v  0.4924 0.0505 -0.0091
v  0.4922 0.0406 -0.0221
v  0.4919 0.0276 -0.0320
v  0.4916 0.0125 -0.0383
v  0.4913 -0.0037 -0.0404
v  0.4909 -0.0199 -0.0383
v  0.4907 -0.0350 -0.0320
v  0.4904 -0.0480 -0.0221
v  0.4902 -0.0580 -0.0091
v  0.4901 -0.0642 0.0060
v  0.3810 -0.0632 0.0387
v  0.3809 -0.0653 0.0222
v  0.3811 -0.0568 0.0541
v  0.3813 -0.0466 0.0673
v  0.3815 -0.0335 0.0775
v  0.3818 -0.0180 0.0839
v  0.3822 -0.0015 0.0861
v  0.3825 0.0150 0.0839
v  0.3828 0.0304 0.0775
v  0.3831 0.0436 0.0673
v  0.3833 0.0538 0.0541
v  0.3834 0.0601 0.0387
v  0.3835 0.0623 0.0222
v  0.3834 0.0601 0.0057
v  0.3833 0.0538 -0.0097
v  0.3831 0.0436 -0.0229
v  0.3828 0.0304 -0.0331
v  0.3825 0.0150 -0.0395
v  0.3822 -0.0015 -0.0416
v  0.3818 -0.0180 -0.0395
v  0.3815 -0.0335 -0.0331
v  0.3813 -0.0466 -0.0229
v  0.3811 -0.0568 -0.0097
v  0.3810 -0.0632 0.0057
v  0.2718 -0.0621 0.0390
v  0.2718 -0.0643 0.0222
v  0.2720 -0.0556 0.0547
v  0.2722 -0.0453 0.0682
v  0.2724 -0.0318 0.0785
v  0.2727 -0.0162 0.0850
v  0.2731 0.0007 0.0873
v  0.2734 0.0175 0.0850
v  0.2737 0.0332 0.0785
v  0.2740 0.0466 0.0682
v  0.2742 0.0570 0.0547
v  0.2744 0.0635 0.0390
v  0.2744 0.0657 0.0222
v  0.2744 0.0635 0.0054
v  0.2742 0.0570 -0.0103
v  0.2740 0.0466 -0.0238
v  0.2737 0.0332 -0.0341
v  0.2734 0.0175 -0.0406
v  0.2731 0.0007 -0.0428
v  0.2727 -0.0162 -0.0406
v  0.2724 -0.0318 -0.0341
v  0.2722 -0.0453 -0.0238
v  0.2720 -0.0556 -0.0103
v  0.2718 -0.0621 0.0054
v  0.2731 0.0007 0.0222
# 146 vertices

vn 0.9998 -0.0202 -0.0000
vn -0.0092 -1.0000 -0.0000
vn -0.0085 -0.9659 0.2588
vn -0.0065 -0.8660 0.5000
vn -0.0033 -0.7071 0.7071
vn 0.0009 -0.5001 0.8660
vn 0.0058 -0.2590 0.9659
vn 0.0110 -0.0002 0.9999
vn 0.0162 0.2585 0.9659
vn 0.0211 0.4996 0.8660
vn 0.0252 0.7067 0.7071
vn 0.0284 0.8656 0.5000
vn 0.0305 0.9654 0.2588
vn 0.0311 0.9995 -0.0000
vn 0.0305 0.9654 -0.2588
vn 0.0284 0.8656 -0.5000
vn 0.0252 0.7067 -0.7071
vn 0.0211 0.4996 -0.8660
vn 0.0162 0.2585 -0.9659
vn 0.0110 -0.0002 -0.9999
vn 0.0058 -0.2590 -0.9659
vn 0.0009 -0.5001 -0.8660
vn -0.0033 -0.7071 -0.7071
vn -0.0065 -0.8660 -0.5000
vn -0.0085 -0.9659 -0.2588
vn -0.9998 0.0202 -0.0000
# 26 vertex normals

vt 0.5000 0.0000 0.0000
vt 0.7083 0.0000 0.9078
vt 0.7500 0.0000 0.9078
vt 0.6667 0.0000 0.9078
vt 0.6250 0.0000 0.9078
vt 0.5833 0.0000 0.9078
vt 0.5417 0.0000 0.9078
vt 0.5000 0.0000 0.9078
vt 0.4583 0.0000 0.9078
vt 0.4167 0.0000 0.9078
vt 0.3750 0.0000 0.9078
vt 0.3333 0.0000 0.9078
vt 0.2917 0.0000 0.9078
vt 0.2500 0.0000 0.9078
vt 0.2083 0.0000 0.9078
vt 0.1667 0.0000 0.9078
vt 0.1250 0.0000 0.9078
vt 0.0833 0.0000 0.9078
vt 0.0417 0.0000 0.9078
vt 0.0000 0.0000 0.9078
vt -0.0417 0.0000 0.9078
vt 0.9167 0.0000 0.9078
vt 0.9583 0.0000 0.9078
vt 0.8750 0.0000 0.9078
vt 0.8333 0.0000 0.9078
vt 0.7917 0.0000 0.9078
vt 0.7083 0.2000 0.9263
vt 0.7500 0.2000 0.9263
vt 0.6667 0.2000 0.9263
vt 0.6250 0.2000 0.9263
vt 0.5833 0.2000 0.9263
vt 0.5417 0.2000 0.9263
vt 0.5000 0.2000 0.9263
vt 0.4583 0.2000 0.9263
vt 0.4167 0.2000 0.9263
vt 0.3750 0.2000 0.9263
vt 0.3333 0.2000 0.9263
vt 0.2917 0.2000 0.9263
vt 0.2500 0.2000 0.9263
vt 0.2083 0.2000 0.9263
vt 0.1667 0.2000 0.9263
vt 0.1250 0.2000 0.9263
vt 0.0833 0.2000 0.9263
vt 0.0417 0.2000 0.9263
vt 0.0000 0.2000 0.9263
vt -0.0417 0.2000 0.9263
vt 0.9167 0.2000 0.9263
vt 0.9583 0.2000 0.9263
vt 0.8750 0.2000 0.9263
vt 0.8333 0.2000 0.9263
vt 0.7917 0.2000 0.9263
vt 0.7083 0.4000 0.9447
vt 0.7500 0.4000 0.9447
vt 0.6667 0.4000 0.9447
vt 0.6250 0.4000 0.9447
vt 0.5833 0.4000 0.9447
vt 0.5417 0.4000 0.9447
vt 0.5000 0.4000 0.9447
vt 0.4583 0.4000 0.9447
vt 0.4167 0.4000 0.9447
vt 0.3750 0.4000 0.9447
vt 0.3333 0.4000 0.9447
vt 0.2917 0.4000 0.9447
vt 0.2500 0.4000 0.9447
vt 0.2083 0.4000 0.9447
vt 0.1667 0.4000 0.9447
vt 0.1250 0.4000 0.9447
vt 0.0833 0.4000 0.9447
vt 0.0417 0.4000 0.9447
vt 0.0000 0.4000 0.9447
vt -0.0417 0.4000 0.9447
vt 0.9167 0.4000 0.9447
vt 0.9583 0.4000 0.9447
vt 0.8750 0.4000 0.9447
vt 0.8333 0.4000 0.9447
vt 0.7917 0.4000 0.9447
vt 0.7083 0.6000 0.9631
vt 0.7500 0.6000 0.9631
vt 0.6667 0.6000 0.9631
vt 0.6250 0.6000 0.9631
vt 0.5833 0.6000 0.9631
vt 0.5417 0.6000 0.9631
vt 0.5000 0.6000 0.9631
vt 0.4583 0.6000 0.9631
vt 0.4167 0.6000 0.9631
vt 0.3750 0.6000 0.9631
vt 0.3333 0.6000 0.9631
vt 0.2917 0.6000 0.9631
vt 0.2500 0.6000 0.9631
vt 0.2083 0.6000 0.9631
vt 0.1667 0.6000 0.9631
vt 0.1250 0.6000 0.9631
vt 0.0833 0.6000 0.9631
vt 0.0417 0.6000 0.9631
vt 0.0000 0.6000 0.9631
vt -0.0417 0.6000 0.9631
vt 0.9167 0.6000 0.9631
vt 0.9583 0.6000 0.9631
vt 0.8750 0.6000 0.9631
vt 0.8333 0.6000 0.9631
vt 0.7917 0.6000 0.9631
vt 0.7083 0.8000 0.9816
vt 0.7500 0.8000 0.9816
vt 0.6667 0.8000 0.9816
vt 0.6250 0.8000 0.9816
vt 0.5833 0.8000 0.9816
vt 0.5417 0.8000 0.9816
vt 0.5000 0.8000 0.9816
vt 0.4583 0.8000 0.9816
vt 0.4167 0.8000 0.9816
vt 0.3750 0.8000 0.9816
vt 0.3333 0.8000 0.9816
vt 0.2917 0.8000 0.9816
vt 0.2500 0.8000 0.9816
vt 0.2083 0.8000 0.9816
vt 0.1667 0.8000 0.9816
vt 0.1250 0.8000 0.9816
vt 0.0833 0.8000 0.9816
vt 0.0417 0.8000 0.9816
vt 0.0000 0.8000 0.9816
vt -0.0417 0.8000 0.9816
vt 0.9167 0.8000 0.9816
vt 0.9583 0.8000 0.9816
vt 0.8750 0.8000 0.9816
vt 0.8333 0.8000 0.9816
vt 0.7917 0.8000 0.9816
vt 0.7083 1.0000 1.0000
vt 0.7500 1.0000 1.0000
vt 0.6667 1.0000 1.0000
vt 0.6250 1.0000 1.0000
vt 0.5833 1.0000 1.0000
vt 0.5417 1.0000 1.0000
vt 0.5000 1.0000 1.0000
vt 0.4583 1.0000 1.0000
vt 0.4167 1.0000 1.0000
vt 0.3750 1.0000 1.0000
vt 0.3333 1.0000 1.0000
vt 0.2917 1.0000 1.0000
vt 0.2500 1.0000 1.0000
vt 0.2083 1.0000 1.0000
vt 0.1667 1.0000 1.0000
vt 0.1250 1.0000 1.0000
vt 0.0833 1.0000 1.0000
vt 0.0417 1.0000 1.0000
vt 0.0000 1.0000 1.0000
vt -0.0417 1.0000 1.0000
vt 0.9167 1.0000 1.0000
vt 0.9583 1.0000 1.0000
vt 0.8750 1.0000 1.0000
vt 0.8333 1.0000 1.0000
vt 0.7917 1.0000 1.0000
vt 0.5000 1.0000 0.0000
# 152 texture coords

g Cone001
usemtl wire_134110008
s 1
f 1/1/1 2/2/1 3/3/1 
f 1/1/1 4/4/1 2/2/1 
f 1/1/1 5/5/1 4/4/1 
f 1/1/1 6/6/1 5/5/1 
f 1/1/1 7/7/1 6/6/1 
f 1/1/1 8/8/1 7/7/1 
f 1/1/1 9/9/1 8/8/1 
f 1/1/1 10/10/1 9/9/1 
f 1/1/1 11/11/1 10/10/1 
f 1/1/1 12/12/1 11/11/1 
f 1/1/1 13/13/1 12/12/1 
f 1/1/1 14/14/1 13/13/1 
f 1/1/1 15/15/1 14/14/1 
f 1/1/1 16/16/1 15/15/1 
f 1/1/1 17/17/1 16/16/1 
f 1/1/1 18/18/1 17/17/1 
f 1/1/1 19/19/1 18/18/1 
f 1/1/1 20/20/1 19/19/1 
f 1/1/1 21/21/1 20/20/1 
f 1/1/1 22/22/1 21/23/1 
f 1/1/1 23/24/1 22/22/1 
f 1/1/1 24/25/1 23/24/1 
f 1/1/1 25/26/1 24/25/1 
f 1/1/1 3/3/1 25/26/1 
s 8
f 3/3/2 26/27/3 27/28/2 
f 3/3/2 2/2/3 26/27/3 
f 2/2/3 28/29/4 26/27/3 
f 2/2/3 4/4/4 28/29/4 
f 4/4/4 29/30/5 28/29/4 
f 4/4/4 5/5/5 29/30/5 
f 5/5/5 30/31/6 29/30/5 
f 5/5/5 6/6/6 30/31/6 
f 6/6/6 31/32/7 30/31/6 
f 6/6/6 7/7/7 31/32/7 
f 7/7/7 32/33/8 31/32/7 
f 7/7/7 8/8/8 32/33/8 
f 8/8/8 33/34/9 32/33/8 
f 8/8/8 9/9/9 33/34/9 
f 9/9/9 34/35/10 33/34/9 
f 9/9/9 10/10/10 34/35/10 
f 10/10/10 35/36/11 34/35/10 
f 10/10/10 11/11/11 35/36/11 
f 11/11/11 36/37/12 35/36/11 
f 11/11/11 12/12/12 36/37/12 
f 12/12/12 37/38/13 36/37/12 
f 12/12/12 13/13/13 37/38/13 
f 13/13/13 38/39/14 37/38/13 
f 13/13/13 14/14/14 38/39/14 
f 14/14/14 39/40/15 38/39/14 
f 14/14/14 15/15/15 39/40/15 
f 15/15/15 40/41/16 39/40/15 
f 15/15/15 16/16/16 40/41/16 
f 16/16/16 41/42/17 40/41/16 
f 16/16/16 17/17/17 41/42/17 
f 17/17/17 42/43/18 41/42/17 
f 17/17/17 18/18/18 42/43/18 
f 18/18/18 43/44/19 42/43/18 
f 18/18/18 19/19/19 43/44/19 
f 19/19/19 44/45/20 43/44/19 
f 19/19/19 20/20/20 44/45/20 
f 20/20/20 45/46/21 44/45/20 
f 20/20/20 21/21/21 45/46/21 
f 21/23/21 46/47/22 45/48/21 
f 21/23/21 22/22/22 46/47/22 
f 22/22/22 47/49/23 46/47/22 
f 22/22/22 23/24/23 47/49/23 
f 23/24/23 48/50/24 47/49/23 
f 23/24/23 24/25/24 48/50/24 
f 24/25/24 49/51/25 48/50/24 
f 24/25/24 25/26/25 49/51/25 
f 25/26/25 27/28/2 49/51/25 
f 25/26/25 3/3/2 27/28/2 
f 27/28/2 50/52/3 51/53/2 
f 27/28/2 26/27/3 50/52/3 
f 26/27/3 52/54/4 50/52/3 
f 26/27/3 28/29/4 52/54/4 
f 28/29/4 53/55/5 52/54/4 
f 28/29/4 29/30/5 53/55/5 
f 29/30/5 54/56/6 53/55/5 
f 29/30/5 30/31/6 54/56/6 
f 30/31/6 55/57/7 54/56/6 
f 30/31/6 31/32/7 55/57/7 
f 31/32/7 56/58/8 55/57/7 
f 31/32/7 32/33/8 56/58/8 
f 32/33/8 57/59/9 56/58/8 
f 32/33/8 33/34/9 57/59/9 
f 33/34/9 58/60/10 57/59/9 
f 33/34/9 34/35/10 58/60/10 
f 34/35/10 59/61/11 58/60/10 
f 34/35/10 35/36/11 59/61/11 
f 35/36/11 60/62/12 59/61/11 
f 35/36/11 36/37/12 60/62/12 
f 36/37/12 61/63/13 60/62/12 
f 36/37/12 37/38/13 61/63/13 
f 37/38/13 62/64/14 61/63/13 
f 37/38/13 38/39/14 62/64/14 
f 38/39/14 63/65/15 62/64/14 
f 38/39/14 39/40/15 63/65/15 
f 39/40/15 64/66/16 63/65/15 
f 39/40/15 40/41/16 64/66/16 
f 40/41/16 65/67/17 64/66/16 
f 40/41/16 41/42/17 65/67/17 
f 41/42/17 66/68/18 65/67/17 
f 41/42/17 42/43/18 66/68/18 
f 42/43/18 67/69/19 66/68/18 
f 42/43/18 43/44/19 67/69/19 
f 43/44/19 68/70/20 67/69/19 
f 43/44/19 44/45/20 68/70/20 
f 44/45/20 69/71/21 68/70/20 
f 44/45/20 45/46/21 69/71/21 
f 45/48/21 70/72/22 69/73/21 
f 45/48/21 46/47/22 70/72/22 
f 46/47/22 71/74/23 70/72/22 
f 46/47/22 47/49/23 71/74/23 
f 47/49/23 72/75/24 71/74/23 
f 47/49/23 48/50/24 72/75/24 
f 48/50/24 73/76/25 72/75/24 
f 48/50/24 49/51/25 73/76/25 
f 49/51/25 51/53/2 73/76/25 
f 49/51/25 27/28/2 51/53/2 
f 51/53/2 74/77/3 75/78/2 
f 51/53/2 50/52/3 74/77/3 
f 50/52/3 76/79/4 74/77/3 
f 50/52/3 52/54/4 76/79/4 
f 52/54/4 77/80/5 76/79/4 
f 52/54/4 53/55/5 77/80/5 
f 53/55/5 78/81/6 77/80/5 
f 53/55/5 54/56/6 78/81/6 
f 54/56/6 79/82/7 78/81/6 
f 54/56/6 55/57/7 79/82/7 
f 55/57/7 80/83/8 79/82/7 
f 55/57/7 56/58/8 80/83/8 
f 56/58/8 81/84/9 80/83/8 
f 56/58/8 57/59/9 81/84/9 
f 57/59/9 82/85/10 81/84/9 
f 57/59/9 58/60/10 82/85/10 
f 58/60/10 83/86/11 82/85/10 
f 58/60/10 59/61/11 83/86/11 
f 59/61/11 84/87/12 83/86/11 
f 59/61/11 60/62/12 84/87/12 
f 60/62/12 85/88/13 84/87/12 
f 60/62/12 61/63/13 85/88/13 
f 61/63/13 86/89/14 85/88/13 
f 61/63/13 62/64/14 86/89/14 
f 62/64/14 87/90/15 86/89/14 
f 62/64/14 63/65/15 87/90/15 
f 63/65/15 88/91/16 87/90/15 
f 63/65/15 64/66/16 88/91/16 
f 64/66/16 89/92/17 88/91/16 
f 64/66/16 65/67/17 89/92/17 
f 65/67/17 90/93/18 89/92/17 
f 65/67/17 66/68/18 90/93/18 
f 66/68/18 91/94/19 90/93/18 
f 66/68/18 67/69/19 91/94/19 
f 67/69/19 92/95/20 91/94/19 
f 67/69/19 68/70/20 92/95/20 
f 68/70/20 93/96/21 92/95/20 
f 68/70/20 69/71/21 93/96/21 
f 69/73/21 94/97/22 93/98/21 
f 69/73/21 70/72/22 94/97/22 
f 70/72/22 95/99/23 94/97/22 
f 70/72/22 71/74/23 95/99/23 
f 71/74/23 96/100/24 95/99/23 
f 71/74/23 72/75/24 96/100/24 
f 72/75/24 97/101/25 96/100/24 
f 72/75/24 73/76/25 97/101/25 
f 73/76/25 75/78/2 97/101/25 
f 73/76/25 51/53/2 75/78/2 
f 75/78/2 98/102/3 99/103/2 
f 75/78/2 74/77/3 98/102/3 
f 74/77/3 100/104/4 98/102/3 
f 74/77/3 76/79/4 100/104/4 
f 76/79/4 101/105/5 100/104/4 
f 76/79/4 77/80/5 101/105/5 
f 77/80/5 102/106/6 101/105/5 
f 77/80/5 78/81/6 102/106/6 
f 78/81/6 103/107/7 102/106/6 
f 78/81/6 79/82/7 103/107/7 
f 79/82/7 104/108/8 103/107/7 
f 79/82/7 80/83/8 104/108/8 
f 80/83/8 105/109/9 104/108/8 
f 80/83/8 81/84/9 105/109/9 
f 81/84/9 106/110/10 105/109/9 
f 81/84/9 82/85/10 106/110/10 
f 82/85/10 107/111/11 106/110/10 
f 82/85/10 83/86/11 107/111/11 
f 83/86/11 108/112/12 107/111/11 
f 83/86/11 84/87/12 108/112/12 
f 84/87/12 109/113/13 108/112/12 
f 84/87/12 85/88/13 109/113/13 
f 85/88/13 110/114/14 109/113/13 
f 85/88/13 86/89/14 110/114/14 
f 86/89/14 111/115/15 110/114/14 
f 86/89/14 87/90/15 111/115/15 
f 87/90/15 112/116/16 111/115/15 
f 87/90/15 88/91/16 112/116/16 
f 88/91/16 113/117/17 112/116/16 
f 88/91/16 89/92/17 113/117/17 
f 89/92/17 114/118/18 113/117/17 
f 89/92/17 90/93/18 114/118/18 
f 90/93/18 115/119/19 114/118/18 
f 90/93/18 91/94/19 115/119/19 
f 91/94/19 116/120/20 115/119/19 
f 91/94/19 92/95/20 116/120/20 
f 92/95/20 117/121/21 116/120/20 
f 92/95/20 93/96/21 117/121/21 
f 93/98/21 118/122/22 117/123/21 
f 93/98/21 94/97/22 118/122/22 
f 94/97/22 119/124/23 118/122/22 
f 94/97/22 95/99/23 119/124/23 
f 95/99/23 120/125/24 119/124/23 
f 95/99/23 96/100/24 120/125/24 
f 96/100/24 121/126/25 120/125/24 
f 96/100/24 97/101/25 121/126/25 
f 97/101/25 99/103/2 121/126/25 
f 97/101/25 75/78/2 99/103/2 
f 99/103/2 122/127/3 123/128/2 
f 99/103/2 98/102/3 122/127/3 
f 98/102/3 124/129/4 122/127/3 
f 98/102/3 100/104/4 124/129/4 
f 100/104/4 125/130/5 124/129/4 
f 100/104/4 101/105/5 125/130/5 
f 101/105/5 126/131/6 125/130/5 
f 101/105/5 102/106/6 126/131/6 
f 102/106/6 127/132/7 126/131/6 
f 102/106/6 103/107/7 127/132/7 
f 103/107/7 128/133/8 127/132/7 
f 103/107/7 104/108/8 128/133/8 
f 104/108/8 129/134/9 128/133/8 
f 104/108/8 105/109/9 129/134/9 
f 105/109/9 130/135/10 129/134/9 
f 105/109/9 106/110/10 130/135/10 
f 106/110/10 131/136/11 130/135/10 
f 106/110/10 107/111/11 131/136/11 
f 107/111/11 132/137/12 131/136/11 
f 107/111/11 108/112/12 132/137/12 
f 108/112/12 133/138/13 132/137/12 
f 108/112/12 109/113/13 133/138/13 
f 109/113/13 134/139/14 133/138/13 
f 109/113/13 110/114/14 134/139/14 
f 110/114/14 135/140/15 134/139/14 
f 110/114/14 111/115/15 135/140/15 
f 111/115/15 136/141/16 135/140/15 
f 111/115/15 112/116/16 136/141/16 
f 112/116/16 137/142/17 136/141/16 
f 112/116/16 113/117/17 137/142/17 
f 113/117/17 138/143/18 137/142/17 
f 113/117/17 114/118/18 138/143/18 
f 114/118/18 139/144/19 138/143/18 
f 114/118/18 115/119/19 139/144/19 
f 115/119/19 140/145/20 139/144/19 
f 115/119/19 116/120/20 140/145/20 
f 116/120/20 141/146/21 140/145/20 
f 116/120/20 117/121/21 141/146/21 
f 117/123/21 142/147/22 141/148/21 
f 117/123/21 118/122/22 142/147/22 
f 118/122/22 143/149/23 142/147/22 
f 118/122/22 119/124/23 143/149/23 
f 119/124/23 144/150/24 143/149/23 
f 119/124/23 120/125/24 144/150/24 
f 120/125/24 145/151/25 144/150/24 
f 120/125/24 121/126/25 145/151/25 
f 121/126/25 123/128/2 145/151/25 
f 121/126/25 99/103/2 123/128/2 
s 1
f 146/152/26 123/128/26 122/127/26 
f 146/152/26 122/127/26 124/129/26 
f 146/152/26 124/129/26 125/130/26 
f 146/152/26 125/130/26 126/131/26 
f 146/152/26 126/131/26 127/132/26 
f 146/152/26 127/132/26 128/133/26 
f 146/152/26 128/133/26 129/134/26 
f 146/152/26 129/134/26 130/135/26 
f 146/152/26 130/135/26 131/136/26 
f 146/152/26 131/136/26 132/137/26 
f 146/152/26 132/137/26 133/138/26 
f 146/152/26 133/138/26 134/139/26 
f 146/152/26 134/139/26 135/140/26 
f 146/152/26 135/140/26 136/141/26 
f 146/152/26 136/141/26 137/142/26 
f 146/152/26 137/142/26 138/143/26 
f 146/152/26 138/143/26 139/144/26 
f 146/152/26 139/144/26 140/145/26 
f 146/152/26 140/145/26 141/146/26 
f 146/152/26 141/148/26 142/147/26 
f 146/152/26 142/147/26 143/149/26 
f 146/152/26 143/149/26 144/150/26 
f 146/152/26 144/150/26 145/151/26 
f 146/152/26 145/151/26 123/128/26 
# 288 faces

